<?xml version="1.0" encoding="utf-8"?>
<!-- Generator: Adobe Illustrator 19.2.1, SVG Export Plug-In . SVG Version: 6.00 Build 0)  -->
<svg version="1.1" id="Layer_1" xmlns="http://www.w3.org/2000/svg" xmlns:xlink="http://www.w3.org/1999/xlink" x="0px" y="0px"
	 viewBox="0 0 595.3 841.9" style="enable-background:new 0 0 595.3 841.9;" xml:space="preserve">
<style type="text/css">
	.st0{fill:#FFFFFF;}
	.st1{fill:#12090A;}
</style>
<rect x="151.6" y="557.8" class="st0" width="284.9" height="29.6"/>
<g>
	<path class="st1" d="M159.9,580.8l4.2-14.5h2.1l4,14.5h-1.3l-0.9-3.4h-5.9l-0.9,3.4H159.9z M167.7,576.3l-2.4-9h-0.4l-2.5,9H167.7z
		"/>
	<path class="st1" d="M182.7,570.6l-0.3,1.2c-0.9-0.3-1.8-0.5-2.6-0.5c-1.1,0-1.9,0.4-2.4,1.1s-0.8,1.8-0.8,3.1s0.3,2.4,0.8,3.2
		c0.5,0.8,1.3,1.2,2.4,1.2c0.7,0,1.6-0.2,2.7-0.6l0.4,1.1c-1.1,0.4-2.1,0.6-3,0.6c-1.5,0-2.6-0.5-3.3-1.5c-0.8-1-1.2-2.3-1.2-4.1
		s0.4-3.1,1.1-4c0.8-0.9,1.9-1.4,3.3-1.4C180.9,570.1,181.8,570.3,182.7,570.6z"/>
	<path class="st1" d="M189.1,571.6v-1.1h2.2v-2.7l1.2-0.2v2.9h5.1v1.1h-5.1v5.1c0,1.1,0.2,1.9,0.5,2.4c0.3,0.5,0.9,0.7,1.8,0.7
		c0.3,0,0.8-0.1,1.5-0.2c0.7-0.1,1.1-0.2,1.4-0.3l0.3,1.1c-0.3,0.1-0.8,0.2-1.5,0.3c-0.7,0.1-1.3,0.2-1.6,0.2
		c-1.3,0-2.2-0.4-2.7-1.1s-0.7-1.8-0.7-3.2v-5.1H189.1z"/>
	<path class="st1" d="M203.9,580.8v-1.1h3.2v-8.3h-3.2v-1.1h4.4v9.4h3.2v1.1H203.9z M206.7,567.1c0-0.3,0.1-0.5,0.3-0.7
		c0.2-0.2,0.4-0.2,0.7-0.2c0.6,0,0.9,0.3,0.9,1s-0.3,1-0.9,1C207,568.1,206.7,567.8,206.7,567.1z"/>
	<path class="st1" d="M217.5,570.2h1.3l2.9,9.5h0.4l2.8-9.5h1.3l-3.2,10.5h-2.2L217.5,570.2z"/>
	<path class="st1" d="M235.3,581c-1.1,0-1.9-0.3-2.6-0.8s-0.9-1.3-0.9-2.4c0-1,0.3-1.8,1-2.4c0.7-0.6,1.6-0.9,2.7-0.9
		c1.1,0,2.1,0,3,0.1c0-1.3-0.2-2.2-0.5-2.7c-0.3-0.5-1-0.7-2-0.7c-1,0-2.2,0.2-3.5,0.7l-0.3-1.1c1.4-0.5,2.6-0.8,3.7-0.8
		c1.5,0,2.5,0.3,3,1s0.8,1.8,0.8,3.4v4.7l0.2,1.7l-1.1,0.1l-0.2-1.3c-0.3,0.3-0.8,0.6-1.4,0.9C236.5,580.8,235.9,581,235.3,581z
		 M235.4,579.8c0.5,0,1.1-0.2,1.8-0.5c0.6-0.3,1.1-0.7,1.4-1v-2.6c-1-0.1-1.9-0.1-2.8-0.1c-0.9,0-1.6,0.2-2,0.6
		c-0.4,0.4-0.7,0.9-0.7,1.5C233.1,579.1,233.8,579.8,235.4,579.8z"/>
	<path class="st1" d="M260.2,571.6v-1.1h2.2v-2.7l1.2-0.2v2.9h5.1v1.1h-5.1v5.1c0,1.1,0.2,1.9,0.5,2.4c0.3,0.5,0.9,0.7,1.8,0.7
		c0.3,0,0.8-0.1,1.5-0.2c0.7-0.1,1.1-0.2,1.4-0.3l0.3,1.1c-0.3,0.1-0.8,0.2-1.5,0.3c-0.7,0.1-1.3,0.2-1.6,0.2
		c-1.3,0-2.2-0.4-2.7-1.1s-0.7-1.8-0.7-3.2v-5.1H260.2z"/>
	<path class="st1" d="M281.4,580.8l0-0.9c-1.4,0.7-2.6,1.1-3.6,1.1c-0.9,0-1.7-0.3-2.2-1c-0.5-0.7-0.8-1.5-0.8-2.7v-7.1h1.2v7.1
		c0,0.7,0.2,1.3,0.5,1.8c0.3,0.5,0.9,0.7,1.6,0.7c0.7,0,1.8-0.4,3.3-1.1v-8.5h1.2v10.5H281.4z"/>
	<path class="st1" d="M303.4,570.2l0.1,0.7c0.7-0.5,1.3-0.8,1.7-0.8c1,0,1.6,0.3,2,1c0.8-0.6,1.6-1,2.2-1c1,0,1.6,0.3,2,0.9
		c0.4,0.6,0.5,1.5,0.5,2.7v7.1h-1.2v-7.1c0-0.8-0.1-1.5-0.3-1.9c-0.2-0.4-0.5-0.6-1-0.6s-1.1,0.2-1.9,0.7c0.1,0.5,0.1,1.1,0.1,1.8
		v3.7h-1.2v-3.7c0-0.8-0.1-1.5-0.3-1.9c-0.2-0.4-0.5-0.6-1-0.6s-1.1,0.2-1.7,0.7v8.8h-1.2v-10.5H303.4z"/>
	<path class="st1" d="M317.6,580.8v-1.1h3.2v-8.3h-3.2v-1.1h4.4v9.4h3.2v1.1H317.6z M320.4,567.1c0-0.3,0.1-0.5,0.3-0.7
		c0.2-0.2,0.4-0.2,0.7-0.2c0.6,0,0.9,0.3,0.9,1s-0.3,1-0.9,1C320.7,568.1,320.4,567.8,320.4,567.1z"/>
	<path class="st1" d="M339,570.6l-0.3,1.2c-0.9-0.3-1.8-0.5-2.6-0.5c-1.1,0-1.9,0.4-2.4,1.1c-0.5,0.7-0.8,1.8-0.8,3.1
		s0.3,2.4,0.8,3.2c0.5,0.8,1.3,1.2,2.4,1.2c0.7,0,1.6-0.2,2.7-0.6l0.4,1.1c-1.1,0.4-2.1,0.6-3,0.6c-1.5,0-2.6-0.5-3.3-1.5
		c-0.8-1-1.2-2.3-1.2-4.1s0.4-3.1,1.1-4c0.8-0.9,1.9-1.4,3.3-1.4C337.1,570.1,338.1,570.3,339,570.6z"/>
	<path class="st1" d="M346,580.8v-1.1h2.5v-8.3H346v-1.1h3.7l0,1.3c0.5-0.3,1.1-0.6,2-0.9s1.6-0.5,2.3-0.5h0.2v1.3H354
		c-0.6,0-1.4,0.2-2.3,0.4c-0.9,0.3-1.6,0.5-2,0.8v7h3.6v1.1H346z"/>
	<path class="st1" d="M359.7,575.5c0-3.6,1.4-5.4,4.2-5.4c2.8,0,4.2,1.8,4.2,5.4c0,3.6-1.4,5.4-4.2,5.4
		C361.1,581,359.7,579.2,359.7,575.5z M363.9,571.3c-2,0-3,1.4-3,4.3c0,2.9,1,4.3,3,4.3c2,0,3-1.4,3-4.3
		C366.9,572.7,365.9,571.3,363.9,571.3z M361.7,567.1l4-2.2l0.5,1.1l-4.1,2L361.7,567.1z"/>
	<path class="st1" d="M374.1,580.8v-1.1h2.5v-8.3h-2.4v-1.1h2.4c0-2.9,1.1-4.4,3.3-4.4c0.7,0,1.6,0.2,2.8,0.5l-0.3,1.1
		c-1.1-0.3-2-0.5-2.5-0.5c-0.8,0-1.3,0.3-1.6,0.8s-0.5,1.4-0.5,2.5h4.5v1.1h-4.5v8.3h4.5v1.1H374.1z"/>
	<path class="st1" d="M388.1,575.5c0-3.6,1.4-5.4,4.2-5.4c2.8,0,4.2,1.8,4.2,5.4c0,3.6-1.4,5.4-4.2,5.4
		C389.5,581,388.1,579.2,388.1,575.5z M392.3,571.3c-2,0-3,1.4-3,4.3c0,2.9,1,4.3,3,4.3c2,0,3-1.4,3-4.3
		C395.3,572.7,394.3,571.3,392.3,571.3z"/>
	<path class="st1" d="M403.8,570.2l0,0.9c1.4-0.7,2.6-1,3.6-1c0.9,0,1.7,0.3,2.2,1s0.8,1.5,0.8,2.7v7h-1.2v-7c0-0.7-0.2-1.3-0.5-1.8
		c-0.4-0.5-0.9-0.7-1.6-0.7s-1.8,0.3-3.3,1v8.5h-1.2v-10.5H403.8z"/>
	<path class="st1" d="M416.5,575.5c0-3.6,1.4-5.4,4.2-5.4c2.8,0,4.2,1.8,4.2,5.4c0,3.6-1.4,5.4-4.2,5.4
		C417.9,581,416.5,579.2,416.5,575.5z M420.7,571.3c-2,0-3,1.4-3,4.3c0,2.9,1,4.3,3,4.3c2,0,3-1.4,3-4.3
		C423.7,572.7,422.7,571.3,420.7,571.3z"/>
</g>
<rect x="140.2" y="511.9" class="st0" width="307.1" height="29.6"/>
<g>
	<path class="st1" d="M154.7,533.4l0.3,1.1c-1.3,0.4-2.5,0.6-3.5,0.6c-1.7,0-3-0.6-3.8-1.8c-0.8-1.2-1.2-3.1-1.2-5.7
		s0.4-4.5,1.2-5.7c0.8-1.2,2.1-1.8,3.8-1.8c1.1,0,2.2,0.2,3.4,0.7l-0.4,1.1c-1.1-0.4-2.1-0.7-3-0.7c-1.3,0-2.3,0.5-2.9,1.5
		s-0.9,2.6-0.9,4.8s0.3,3.8,0.9,4.8c0.6,1,1.6,1.5,2.8,1.5C152.4,533.9,153.4,533.8,154.7,533.4z"/>
	<path class="st1" d="M160.8,529.7c0-3.6,1.4-5.4,4.2-5.4s4.2,1.8,4.2,5.4c0,3.6-1.4,5.4-4.2,5.4S160.8,533.3,160.8,529.7z
		 M165,525.4c-2,0-3,1.4-3,4.3c0,2.9,1,4.3,3,4.3s3-1.4,3-4.3C168,526.8,167,525.4,165,525.4z"/>
	<path class="st1" d="M176.5,524.4l0,0.9c1.4-0.7,2.6-1,3.6-1c0.9,0,1.7,0.3,2.2,1s0.8,1.5,0.8,2.7v7H182v-7c0-0.7-0.2-1.3-0.5-1.8
		c-0.4-0.5-0.9-0.7-1.6-0.7s-1.8,0.3-3.3,1v8.5h-1.2v-10.5H176.5z"/>
	<path class="st1" d="M189.4,529.6c0-1.7,0.4-3,1.1-4c0.7-1,1.7-1.4,3.1-1.4c1.3,0,2.3,0.4,3,1.3c0.7,0.9,1,2.1,1,3.6l-0.1,1.1h-6.8
		c0.1,1.1,0.4,2,0.9,2.7c0.5,0.7,1.2,1,2.1,1c0.9,0,2-0.2,3.2-0.6l0.3,1.1c-1.2,0.5-2.3,0.7-3.4,0.7c-1.5,0-2.6-0.5-3.3-1.5
		C189.8,532.7,189.4,531.3,189.4,529.6z M193.6,525.4c-1.9,0-2.8,1.3-3,3.8h5.6C196.2,526.6,195.4,525.4,193.6,525.4z"/>
	<path class="st1" d="M211.2,524.7l-0.3,1.2c-0.9-0.3-1.8-0.5-2.6-0.5c-1.1,0-1.9,0.4-2.4,1.1s-0.8,1.8-0.8,3.1s0.3,2.4,0.8,3.2
		c0.5,0.8,1.3,1.2,2.4,1.2c0.7,0,1.6-0.2,2.7-0.6l0.4,1.1c-1.1,0.4-2.1,0.6-3,0.6c-1.5,0-2.6-0.5-3.3-1.5c-0.8-1-1.2-2.3-1.2-4.1
		s0.4-3.1,1.1-4c0.8-0.9,1.9-1.4,3.3-1.4C209.3,524.2,210.2,524.4,211.2,524.7z"/>
	<path class="st1" d="M217.5,525.8v-1.1h2.2V522l1.2-0.2v2.9h5.1v1.1h-5.1v5.1c0,1.1,0.2,1.9,0.5,2.4c0.3,0.5,0.9,0.7,1.8,0.7
		c0.3,0,0.8-0.1,1.5-0.2c0.7-0.1,1.1-0.2,1.4-0.3l0.3,1.1c-0.3,0.1-0.8,0.2-1.5,0.3c-0.7,0.1-1.3,0.2-1.6,0.2
		c-1.3,0-2.2-0.4-2.7-1.1s-0.7-1.8-0.7-3.2v-5.1H217.5z"/>
	<path class="st1" d="M235.3,535.1c-1.1,0-1.9-0.3-2.6-0.8s-0.9-1.3-0.9-2.4c0-1,0.3-1.8,1-2.4c0.7-0.6,1.6-0.9,2.7-0.9
		c1.1,0,2.1,0,3,0.1c0-1.3-0.2-2.2-0.5-2.7c-0.3-0.5-1-0.7-2-0.7c-1,0-2.2,0.2-3.5,0.7l-0.3-1.1c1.4-0.5,2.6-0.8,3.7-0.8
		c1.5,0,2.5,0.3,3,1s0.8,1.8,0.8,3.4v4.7l0.2,1.7l-1.1,0.1l-0.2-1.3c-0.3,0.3-0.8,0.6-1.4,0.9C236.5,535,235.9,535.1,235.3,535.1z
		 M235.3,533.9c0.5,0,1.1-0.2,1.8-0.5c0.6-0.3,1.1-0.7,1.4-1v-2.6c-1-0.1-1.9-0.1-2.8-0.1c-0.9,0-1.6,0.2-2,0.6
		c-0.4,0.4-0.7,0.9-0.7,1.5C233.1,533.2,233.8,533.9,235.3,533.9z"/>
	<path class="st1" d="M260.2,525.8v-1.1h2.2V522l1.2-0.2v2.9h5.1v1.1h-5.1v5.1c0,1.1,0.2,1.9,0.5,2.4c0.3,0.5,0.9,0.7,1.8,0.7
		c0.3,0,0.8-0.1,1.5-0.2c0.7-0.1,1.1-0.2,1.4-0.3l0.3,1.1c-0.3,0.1-0.8,0.2-1.5,0.3c-0.7,0.1-1.3,0.2-1.6,0.2
		c-1.3,0-2.2-0.4-2.7-1.1s-0.7-1.8-0.7-3.2v-5.1H260.2z"/>
	<path class="st1" d="M281.4,534.9l0-0.9c-1.4,0.7-2.6,1.1-3.6,1.1c-0.9,0-1.7-0.3-2.2-1c-0.5-0.7-0.8-1.5-0.8-2.7v-7.1h1.2v7.1
		c0,0.7,0.2,1.3,0.5,1.8c0.3,0.5,0.9,0.7,1.6,0.7c0.7,0,1.8-0.4,3.3-1.1v-8.5h1.2v10.5H281.4z"/>
	<path class="st1" d="M289.1,534.4l0.3-1.2c1.5,0.5,2.6,0.7,3.4,0.7c0.8,0,1.4-0.2,1.9-0.5s0.7-0.8,0.7-1.4c0-0.6-0.2-1-0.5-1.3
		c-0.3-0.3-1.1-0.5-2.2-0.8c-1.1-0.3-1.9-0.6-2.5-1.1c-0.5-0.4-0.8-1.1-0.8-2s0.3-1.6,1-2c0.7-0.5,1.5-0.7,2.6-0.7s2.2,0.2,3.5,0.7
		l-0.3,1c-1.3-0.4-2.3-0.6-3-0.6s-1.4,0.1-1.8,0.4c-0.4,0.3-0.7,0.7-0.7,1.2s0.2,0.9,0.6,1.2c0.4,0.3,1.2,0.6,2.3,0.8
		c1.1,0.3,1.9,0.6,2.4,1.1s0.7,1.1,0.7,2.1c0,0.9-0.3,1.7-1,2.2c-0.6,0.5-1.5,0.8-2.7,0.8S290.5,534.9,289.1,534.4z"/>
	<path class="st1" d="M320.6,535.1c-1.1,0-1.9-0.3-2.6-0.8c-0.6-0.6-0.9-1.3-0.9-2.4c0-1,0.3-1.8,1-2.4c0.7-0.6,1.6-0.9,2.7-0.9
		c1.1,0,2.1,0,3,0.1c0-1.3-0.2-2.2-0.5-2.7c-0.3-0.5-1-0.7-2-0.7s-2.2,0.2-3.5,0.7l-0.3-1.1c1.4-0.5,2.6-0.8,3.7-0.8
		c1.5,0,2.5,0.3,3,1c0.5,0.7,0.8,1.8,0.8,3.4v4.7l0.2,1.7l-1.1,0.1l-0.2-1.3c-0.3,0.3-0.8,0.6-1.4,0.9
		C321.7,535,321.1,535.1,320.6,535.1z M320.6,533.9c0.5,0,1.1-0.2,1.8-0.5c0.6-0.3,1.1-0.7,1.4-1v-2.6c-1-0.1-1.9-0.1-2.8-0.1
		c-0.9,0-1.6,0.2-2,0.6c-0.4,0.4-0.7,0.9-0.7,1.5C318.3,533.2,319.1,533.9,320.6,533.9z"/>
	<path class="st1" d="M338.3,534.9l0-0.9c-1.4,0.7-2.6,1.1-3.6,1.1c-0.9,0-1.7-0.3-2.2-1c-0.5-0.7-0.8-1.5-0.8-2.7v-7.1h1.2v7.1
		c0,0.7,0.2,1.3,0.5,1.8c0.3,0.5,0.9,0.7,1.6,0.7c0.7,0,1.8-0.4,3.3-1.1v-8.5h1.2v10.5H338.3z"/>
	<path class="st1" d="M353.7,520.2v12.9l0.2,1.9l-1.1,0.1l-0.2-1.2c-1.1,0.8-2.1,1.2-3.1,1.2c-1.3,0-2.3-0.5-3.1-1.5
		c-0.7-1-1.1-2.3-1.1-4c0-1.7,0.4-3,1.2-4c0.8-1,1.9-1.5,3.3-1.5c0.8,0,1.7,0.2,2.6,0.6v-4.7H353.7z M346.6,529.6
		c0,1.3,0.3,2.3,0.8,3.1c0.5,0.8,1.2,1.2,2.2,1.2s1.9-0.4,3-1.3V526c-0.3-0.1-0.7-0.3-1.3-0.4s-1-0.2-1.3-0.2
		c-1.1,0-1.9,0.4-2.5,1.1C346.9,527.3,346.6,528.3,346.6,529.6z"/>
	<path class="st1" d="M360.2,534.9v-1.1h3.2v-8.3h-3.2v-1.1h4.4v9.4h3.2v1.1H360.2z M363,521.2c0-0.3,0.1-0.5,0.3-0.7
		c0.2-0.2,0.4-0.2,0.7-0.2c0.6,0,0.9,0.3,0.9,1s-0.3,1-0.9,1C363.3,522.2,363,521.9,363,521.2z"/>
	<path class="st1" d="M374.1,534.9v-1.1h2.5v-8.3h-2.4v-1.1h2.4c0-2.9,1.1-4.4,3.3-4.4c0.7,0,1.6,0.2,2.8,0.5l-0.3,1.1
		c-1.1-0.3-2-0.5-2.5-0.5c-0.8,0-1.3,0.3-1.6,0.8s-0.5,1.4-0.5,2.5h4.5v1.1h-4.5v8.3h4.5v1.1H374.1z"/>
	<path class="st1" d="M388.1,529.7c0-3.6,1.4-5.4,4.2-5.4c2.8,0,4.2,1.8,4.2,5.4c0,3.6-1.4,5.4-4.2,5.4
		C389.5,535.1,388.1,533.3,388.1,529.7z M392.3,525.4c-2,0-3,1.4-3,4.3c0,2.9,1,4.3,3,4.3c2,0,3-1.4,3-4.3
		C395.3,526.8,394.3,525.4,392.3,525.4z"/>
	<path class="st1" d="M403.8,524.4l0,0.9c1.4-0.7,2.6-1,3.6-1c0.9,0,1.7,0.3,2.2,1s0.8,1.5,0.8,2.7v7h-1.2v-7c0-0.7-0.2-1.3-0.5-1.8
		c-0.4-0.5-0.9-0.7-1.6-0.7s-1.8,0.3-3.3,1v8.5h-1.2v-10.5H403.8z"/>
	<path class="st1" d="M416.5,529.7c0-3.6,1.4-5.4,4.2-5.4c2.8,0,4.2,1.8,4.2,5.4c0,3.6-1.4,5.4-4.2,5.4
		C417.9,535.1,416.5,533.3,416.5,529.7z M420.7,525.4c-2,0-3,1.4-3,4.3c0,2.9,1,4.3,3,4.3c2,0,3-1.4,3-4.3
		C423.7,526.8,422.7,525.4,420.7,525.4z"/>
	<path class="st1" d="M431.1,534.4l0.3-1.2c1.5,0.5,2.6,0.7,3.4,0.7c0.8,0,1.4-0.2,1.9-0.5s0.7-0.8,0.7-1.4c0-0.6-0.2-1-0.5-1.3
		c-0.3-0.3-1.1-0.5-2.2-0.8c-1.1-0.3-1.9-0.6-2.5-1.1c-0.5-0.4-0.8-1.1-0.8-2s0.3-1.6,1-2c0.7-0.5,1.5-0.7,2.6-0.7s2.2,0.2,3.5,0.7
		l-0.3,1c-1.3-0.4-2.3-0.6-3-0.6s-1.4,0.1-1.8,0.4c-0.4,0.3-0.7,0.7-0.7,1.2s0.2,0.9,0.6,1.2c0.4,0.3,1.2,0.6,2.3,0.8
		c1.1,0.3,1.9,0.6,2.4,1.1s0.7,1.1,0.7,2.1c0,0.9-0.3,1.7-1,2.2c-0.6,0.5-1.5,0.8-2.7,0.8S432.5,534.9,431.1,534.4z"/>
</g>
<g>
	<g>
		<circle class="st0" cx="220.5" cy="324.5" r="2.9"/>
		<circle class="st0" cx="220.8" cy="315.9" r="2.9"/>
		<circle class="st0" cx="221.6" cy="307.6" r="2.9"/>
		<circle class="st0" cx="223.1" cy="299.6" r="2.9"/>
		<circle class="st0" cx="225.1" cy="291.9" r="2.9"/>
		<circle class="st0" cx="227.7" cy="284.6" r="2.9"/>
		<circle class="st0" cx="231" cy="277.8" r="2.9"/>
		<circle class="st0" cx="234.8" cy="271.5" r="2.9"/>
		<circle class="st0" cx="239.3" cy="265.7" r="2.9"/>
		<circle class="st0" cx="244.5" cy="260.5" r="2.9"/>
		<circle class="st0" cx="250.3" cy="256" r="2.9"/>
		<circle class="st0" cx="256.7" cy="252.2" r="2.9"/>
		<circle class="st0" cx="263.8" cy="249.2" r="2.9"/>
		<circle class="st0" cx="271.7" cy="246.9" r="2.9"/>
		<circle class="st0" cx="280.2" cy="245.5" r="2.9"/>
		<circle class="st0" cx="289.4" cy="245.1" r="2.9"/>
		<circle class="st0" cx="298.6" cy="245.6" r="2.9"/>
		<circle class="st0" cx="307.1" cy="247" r="2.9"/>
		<circle class="st0" cx="314.9" cy="249.2" r="2.9"/>
		<circle class="st0" cx="322.1" cy="252.3" r="2.9"/>
		<circle class="st0" cx="328.6" cy="256.2" r="2.9"/>
		<circle class="st0" cx="334.4" cy="260.8" r="2.9"/>
		<circle class="st0" cx="339.5" cy="266" r="2.9"/>
		<circle class="st0" cx="344.1" cy="271.8" r="2.9"/>
		<circle class="st0" cx="348" cy="278.2" r="2.9"/>
		<circle class="st0" cx="351.2" cy="285" r="2.9"/>
		<circle class="st0" cx="353.9" cy="292.3" r="2.9"/>
		<circle class="st0" cx="355.9" cy="299.9" r="2.9"/>
		<circle class="st0" cx="357.4" cy="307.9" r="2.9"/>
		<circle class="st0" cx="358.2" cy="316.1" r="2.9"/>
		<circle class="st0" cx="358.5" cy="324.5" r="2.9"/>
	</g>
	<g>
		<circle class="st0" cx="307.1" cy="474.6" r="2.9"/>
		<circle class="st0" cx="299.1" cy="474.6" r="2.9"/>
		<circle class="st0" cx="299.1" cy="466.6" r="2.9"/>
		<circle class="st0" cx="291.1" cy="466.6" r="2.9"/>
		<circle class="st0" cx="291.1" cy="474.6" r="2.9"/>
		<circle class="st0" cx="307.1" cy="466.6" r="2.9"/>
		<circle class="st0" cx="314.9" cy="472.3" r="2.9"/>
		<circle class="st0" cx="322.1" cy="469.2" r="2.9"/>
		<circle class="st0" cx="328.6" cy="465.4" r="2.9"/>
		<circle class="st0" cx="334.4" cy="460.8" r="2.9"/>
		<circle class="st0" cx="339.5" cy="455.6" r="2.9"/>
		<circle class="st0" cx="344.1" cy="449.8" r="2.9"/>
		<circle class="st0" cx="348" cy="443.4" r="2.9"/>
		<circle class="st0" cx="351.2" cy="436.6" r="2.9"/>
		<circle class="st0" cx="353.9" cy="429.3" r="2.9"/>
		<circle class="st0" cx="355.9" cy="421.7" r="2.9"/>
		<circle class="st0" cx="357.4" cy="413.7" r="2.9"/>
		<circle class="st0" cx="358.2" cy="405.5" r="2.9"/>
		<circle class="st0" cx="358.5" cy="397.1" r="2.9"/>
	</g>
	<g>
		<circle class="st0" cx="220.5" cy="332.5" r="2.9"/>
		<circle class="st0" cx="220.5" cy="340.5" r="2.9"/>
		<circle class="st0" cx="220.5" cy="348.5" r="2.9"/>
		<circle class="st0" cx="220.5" cy="356.5" r="2.9"/>
		<circle class="st0" cx="220.5" cy="364.5" r="2.9"/>
		<circle class="st0" cx="220.5" cy="372.5" r="2.9"/>
		<circle class="st0" cx="220.5" cy="380.5" r="2.9"/>
		<circle class="st0" cx="220.5" cy="388.5" r="2.9"/>
	</g>
	<g>
		<circle class="st0" cx="228.5" cy="332.5" r="2.9"/>
		<circle class="st0" cx="228.5" cy="340.5" r="2.9"/>
		<circle class="st0" cx="228.5" cy="348.5" r="2.9"/>
		<circle class="st0" cx="228.5" cy="356.5" r="2.9"/>
		<circle class="st0" cx="228.5" cy="364.5" r="2.9"/>
		<circle class="st0" cx="228.5" cy="372.5" r="2.9"/>
		<circle class="st0" cx="228.5" cy="380.5" r="2.9"/>
		<circle class="st0" cx="228.5" cy="388.5" r="2.9"/>
	</g>
	<g>
		<circle class="st0" cx="212.5" cy="332.5" r="2.9"/>
		<circle class="st0" cx="212.5" cy="340.5" r="2.9"/>
		<circle class="st0" cx="212.5" cy="348.5" r="2.9"/>
		<circle class="st0" cx="212.5" cy="356.5" r="2.9"/>
		<circle class="st0" cx="212.5" cy="364.5" r="2.9"/>
		<circle class="st0" cx="212.5" cy="372.5" r="2.9"/>
		<circle class="st0" cx="212.5" cy="380.5" r="2.9"/>
		<circle class="st0" cx="212.5" cy="388.5" r="2.9"/>
	</g>
	<g>
		<circle class="st0" cx="205.5" cy="340.5" r="2.9"/>
		<circle class="st0" cx="205.5" cy="348.5" r="2.9"/>
		<circle class="st0" cx="205.5" cy="356.5" r="2.9"/>
		<circle class="st0" cx="205.5" cy="364.5" r="2.9"/>
		<circle class="st0" cx="205.5" cy="372.5" r="2.9"/>
		<circle class="st0" cx="205.5" cy="380.5" r="2.9"/>
	</g>
	<g>
		<circle class="st0" cx="197.5" cy="348.5" r="2.9"/>
		<circle class="st0" cx="197.5" cy="356.5" r="2.9"/>
		<circle class="st0" cx="197.5" cy="364.5" r="2.9"/>
		<circle class="st0" cx="197.5" cy="372.5" r="2.9"/>
	</g>
	<g>
		<circle class="st0" cx="359.5" cy="332.5" r="2.9"/>
		<circle class="st0" cx="359.5" cy="340.5" r="2.9"/>
		<circle class="st0" cx="359.5" cy="348.5" r="2.9"/>
		<circle class="st0" cx="359.5" cy="356.5" r="2.9"/>
		<circle class="st0" cx="359.5" cy="364.5" r="2.9"/>
		<circle class="st0" cx="359.5" cy="372.5" r="2.9"/>
		<circle class="st0" cx="359.5" cy="380.5" r="2.9"/>
		<circle class="st0" cx="359.5" cy="388.5" r="2.9"/>
	</g>
	<g>
		<circle class="st0" cx="351.5" cy="332.5" r="2.9"/>
		<circle class="st0" cx="351.5" cy="340.5" r="2.9"/>
		<circle class="st0" cx="351.5" cy="348.5" r="2.9"/>
		<circle class="st0" cx="351.5" cy="356.5" r="2.9"/>
		<circle class="st0" cx="351.5" cy="364.5" r="2.9"/>
		<circle class="st0" cx="351.5" cy="372.5" r="2.9"/>
		<circle class="st0" cx="351.5" cy="380.5" r="2.9"/>
		<circle class="st0" cx="351.5" cy="388.5" r="2.9"/>
	</g>
	<g>
		<circle class="st0" cx="367.5" cy="332.5" r="2.9"/>
		<circle class="st0" cx="367.5" cy="340.5" r="2.9"/>
		<circle class="st0" cx="367.5" cy="348.5" r="2.9"/>
		<circle class="st0" cx="367.5" cy="356.5" r="2.9"/>
		<circle class="st0" cx="367.5" cy="364.5" r="2.9"/>
		<circle class="st0" cx="367.5" cy="372.5" r="2.9"/>
		<circle class="st0" cx="367.5" cy="380.5" r="2.9"/>
		<circle class="st0" cx="367.5" cy="388.5" r="2.9"/>
	</g>
	<g>
		<circle class="st0" cx="374.5" cy="340.5" r="2.9"/>
		<circle class="st0" cx="374.5" cy="348.5" r="2.9"/>
		<circle class="st0" cx="374.5" cy="356.5" r="2.9"/>
		<circle class="st0" cx="374.5" cy="364.5" r="2.9"/>
		<circle class="st0" cx="374.5" cy="372.5" r="2.9"/>
		<circle class="st0" cx="374.5" cy="380.5" r="2.9"/>
	</g>
	<g>
		<circle class="st0" cx="382.5" cy="348.5" r="2.9"/>
		<circle class="st0" cx="382.5" cy="356.5" r="2.9"/>
		<circle class="st0" cx="382.5" cy="364.5" r="2.9"/>
		<circle class="st0" cx="382.5" cy="372.5" r="2.9"/>
	</g>
</g>
</svg>
