<?xml version="1.0" encoding="utf-8"?>
<!-- Generator: Adobe Illustrator 19.2.1, SVG Export Plug-In . SVG Version: 6.00 Build 0)  -->
<svg version="1.1" id="Layer_1" xmlns="http://www.w3.org/2000/svg" xmlns:xlink="http://www.w3.org/1999/xlink" x="0px" y="0px"
	 viewBox="0 0 748.8 186.8" style="enable-background:new 0 0 748.8 186.8;" xml:space="preserve">
<style type="text/css">
	.st0{fill:#F8F7F7;}
	.st1{fill:#12090A;}
</style>
<rect x="166" y="27.3" class="st0" width="407" height="61"/>
<rect x="23" y="93.3" class="st0" width="694" height="61"/>
<g>
	<path class="st1" d="M185.1,48c1.3,0,2.4,1.1,2.4,2.4c0,1.3-1.1,2.3-2.4,2.3c-1.3,0-2.3-1-2.3-2.3C182.8,49.1,183.8,48,185.1,48z
		 M185.1,54.3c1.3,0,2.4,1.1,2.4,2.4c0,1.3-1.1,2.3-2.4,2.3c-1.3,0-2.3-1-2.3-2.3C182.8,55.3,183.8,54.3,185.1,54.3z M185.1,60.5
		c1.3,0,2.4,1.1,2.4,2.4c0,1.3-1.1,2.3-2.4,2.3c-1.3,0-2.3-1-2.3-2.3C182.8,61.6,183.8,60.5,185.1,60.5z M185.1,66.7
		c1.3,0,2.4,1.1,2.4,2.4c0,1.3-1.1,2.3-2.4,2.3c-1.3,0-2.3-1-2.3-2.3C182.8,67.8,183.8,66.7,185.1,66.7z M185.1,73
		c1.3,0,2.4,1.1,2.4,2.4s-1.1,2.3-2.4,2.3c-1.3,0-2.3-1-2.3-2.3S183.8,73,185.1,73z M191.3,54.3c1.3,0,2.4,1.1,2.4,2.4
		c0,1.3-1.1,2.3-2.4,2.3s-2.3-1-2.3-2.3C189,55.3,190,54.3,191.3,54.3z M197.6,60.5c1.3,0,2.4,1.1,2.4,2.4c0,1.3-1.1,2.3-2.4,2.3
		s-2.3-1-2.3-2.3C195.3,61.6,196.3,60.5,197.6,60.5z M197.6,66.7c1.3,0,2.4,1.1,2.4,2.4c0,1.3-1.1,2.3-2.4,2.3s-2.3-1-2.3-2.3
		C195.3,67.8,196.3,66.7,197.6,66.7z M203.8,54.3c1.3,0,2.4,1.1,2.4,2.4c0,1.3-1.1,2.3-2.4,2.3c-1.3,0-2.3-1-2.3-2.3
		C201.5,55.3,202.5,54.3,203.8,54.3z M210,48c1.3,0,2.4,1.1,2.4,2.4c0,1.3-1.1,2.3-2.4,2.3s-2.3-1-2.3-2.3
		C207.7,49.1,208.7,48,210,48z M210,54.3c1.3,0,2.4,1.1,2.4,2.4c0,1.3-1.1,2.3-2.4,2.3s-2.3-1-2.3-2.3
		C207.7,55.3,208.7,54.3,210,54.3z M210,60.5c1.3,0,2.4,1.1,2.4,2.4c0,1.3-1.1,2.3-2.4,2.3s-2.3-1-2.3-2.3
		C207.7,61.6,208.7,60.5,210,60.5z M210,66.7c1.3,0,2.4,1.1,2.4,2.4c0,1.3-1.1,2.3-2.4,2.3s-2.3-1-2.3-2.3
		C207.7,67.8,208.7,66.7,210,66.7z M210,73c1.3,0,2.4,1.1,2.4,2.4s-1.1,2.3-2.4,2.3s-2.3-1-2.3-2.3S208.7,73,210,73z"/>
	<path class="st1" d="M231.2,54.3c1.3,0,2.4,1.1,2.4,2.4c0,1.3-1.1,2.3-2.4,2.3c-1.3,0-2.3-1-2.3-2.3
		C228.9,55.3,229.9,54.3,231.2,54.3z M231.2,60.5c1.3,0,2.4,1.1,2.4,2.4c0,1.3-1.1,2.3-2.4,2.3c-1.3,0-2.3-1-2.3-2.3
		C228.9,61.6,229.9,60.5,231.2,60.5z M231.2,66.7c1.3,0,2.4,1.1,2.4,2.4c0,1.3-1.1,2.3-2.4,2.3c-1.3,0-2.3-1-2.3-2.3
		C228.9,67.8,229.9,66.7,231.2,66.7z M231.2,73c1.3,0,2.4,1.1,2.4,2.4s-1.1,2.3-2.4,2.3c-1.3,0-2.3-1-2.3-2.3S229.9,73,231.2,73z
		 M237.4,35.6c1.3,0,2.4,1.1,2.4,2.4c0,1.3-1.1,2.3-2.4,2.3s-2.3-1-2.3-2.3C235.1,36.6,236.1,35.6,237.4,35.6z M237.4,48
		c1.3,0,2.4,1.1,2.4,2.4c0,1.3-1.1,2.3-2.4,2.3s-2.3-1-2.3-2.3C235.1,49.1,236.1,48,237.4,48z M237.4,60.5c1.3,0,2.4,1.1,2.4,2.4
		c0,1.3-1.1,2.3-2.4,2.3s-2.3-1-2.3-2.3C235.1,61.6,236.1,60.5,237.4,60.5z M243.7,35.6c1.3,0,2.4,1.1,2.4,2.4
		c0,1.3-1.1,2.3-2.4,2.3s-2.3-1-2.3-2.3C241.4,36.6,242.4,35.6,243.7,35.6z M243.7,48c1.3,0,2.4,1.1,2.4,2.4c0,1.3-1.1,2.3-2.4,2.3
		s-2.3-1-2.3-2.3C241.4,49.1,242.4,48,243.7,48z M243.7,60.5c1.3,0,2.4,1.1,2.4,2.4c0,1.3-1.1,2.3-2.4,2.3s-2.3-1-2.3-2.3
		C241.4,61.6,242.4,60.5,243.7,60.5z M249.9,29.4c1.3,0,2.4,1.1,2.4,2.4c0,1.3-1.1,2.3-2.4,2.3c-1.3,0-2.3-1-2.3-2.3
		C247.6,30.4,248.6,29.4,249.9,29.4z M249.9,48c1.3,0,2.4,1.1,2.4,2.4c0,1.3-1.1,2.3-2.4,2.3c-1.3,0-2.3-1-2.3-2.3
		C247.6,49.1,248.6,48,249.9,48z M249.9,60.5c1.3,0,2.4,1.1,2.4,2.4c0,1.3-1.1,2.3-2.4,2.3c-1.3,0-2.3-1-2.3-2.3
		C247.6,61.6,248.6,60.5,249.9,60.5z M256.1,54.3c1.3,0,2.4,1.1,2.4,2.4c0,1.3-1.1,2.3-2.4,2.3s-2.3-1-2.3-2.3
		C253.8,55.3,254.8,54.3,256.1,54.3z M256.1,60.5c1.3,0,2.4,1.1,2.4,2.4c0,1.3-1.1,2.3-2.4,2.3s-2.3-1-2.3-2.3
		C253.8,61.6,254.8,60.5,256.1,60.5z M256.1,66.7c1.3,0,2.4,1.1,2.4,2.4c0,1.3-1.1,2.3-2.4,2.3s-2.3-1-2.3-2.3
		C253.8,67.8,254.8,66.7,256.1,66.7z M256.1,73c1.3,0,2.4,1.1,2.4,2.4s-1.1,2.3-2.4,2.3s-2.3-1-2.3-2.3S254.8,73,256.1,73z"/>
	<path class="st1" d="M277.3,54.3c1.3,0,2.4,1.1,2.4,2.4c0,1.3-1.1,2.3-2.4,2.3c-1.3,0-2.3-1-2.3-2.3C275,55.3,276,54.3,277.3,54.3z
		 M277.3,73c1.3,0,2.4,1.1,2.4,2.4s-1.1,2.3-2.4,2.3c-1.3,0-2.3-1-2.3-2.3S276,73,277.3,73z M283.5,48c1.3,0,2.4,1.1,2.4,2.4
		c0,1.3-1.1,2.3-2.4,2.3s-2.3-1-2.3-2.3C281.2,49.1,282.2,48,283.5,48z M283.5,60.5c1.3,0,2.4,1.1,2.4,2.4c0,1.3-1.1,2.3-2.4,2.3
		s-2.3-1-2.3-2.3C281.2,61.6,282.2,60.5,283.5,60.5z M283.5,73c1.3,0,2.4,1.1,2.4,2.4s-1.1,2.3-2.4,2.3s-2.3-1-2.3-2.3
		S282.2,73,283.5,73z M289.8,48c1.3,0,2.4,1.1,2.4,2.4c0,1.3-1.1,2.3-2.4,2.3s-2.3-1-2.3-2.3C287.5,49.1,288.5,48,289.8,48z
		 M289.8,60.5c1.3,0,2.4,1.1,2.4,2.4c0,1.3-1.1,2.3-2.4,2.3s-2.3-1-2.3-2.3C287.5,61.6,288.5,60.5,289.8,60.5z M289.8,73
		c1.3,0,2.4,1.1,2.4,2.4s-1.1,2.3-2.4,2.3s-2.3-1-2.3-2.3S288.5,73,289.8,73z M296,48c1.3,0,2.4,1.1,2.4,2.4c0,1.3-1.1,2.3-2.4,2.3
		c-1.3,0-2.3-1-2.3-2.3C293.7,49.1,294.7,48,296,48z M296,60.5c1.3,0,2.4,1.1,2.4,2.4c0,1.3-1.1,2.3-2.4,2.3c-1.3,0-2.3-1-2.3-2.3
		C293.7,61.6,294.7,60.5,296,60.5z M296,73c1.3,0,2.4,1.1,2.4,2.4s-1.1,2.3-2.4,2.3c-1.3,0-2.3-1-2.3-2.3S294.7,73,296,73z
		 M302.2,48c1.3,0,2.4,1.1,2.4,2.4c0,1.3-1.1,2.3-2.4,2.3c-1.3,0-2.3-1-2.3-2.3C299.9,49.1,300.9,48,302.2,48z M302.2,66.7
		c1.3,0,2.4,1.1,2.4,2.4c0,1.3-1.1,2.3-2.4,2.3c-1.3,0-2.3-1-2.3-2.3C299.9,67.8,300.9,66.7,302.2,66.7z"/>
	<path class="st1" d="M389.3,54.3c1.3,0,2.4,1.1,2.4,2.4c0,1.3-1.1,2.3-2.4,2.3c-1.3,0-2.3-1-2.3-2.3C387,55.3,388,54.3,389.3,54.3z
		 M389.3,60.5c1.3,0,2.4,1.1,2.4,2.4c0,1.3-1.1,2.3-2.4,2.3c-1.3,0-2.3-1-2.3-2.3C387,61.6,388,60.5,389.3,60.5z M389.3,66.7
		c1.3,0,2.4,1.1,2.4,2.4c0,1.3-1.1,2.3-2.4,2.3c-1.3,0-2.3-1-2.3-2.3C387,67.8,388,66.7,389.3,66.7z M389.3,73
		c1.3,0,2.4,1.1,2.4,2.4s-1.1,2.3-2.4,2.3c-1.3,0-2.3-1-2.3-2.3S388,73,389.3,73z M395.5,48c1.3,0,2.4,1.1,2.4,2.4
		c0,1.3-1.1,2.3-2.4,2.3s-2.3-1-2.3-2.3C393.2,49.1,394.2,48,395.5,48z M395.5,60.5c1.3,0,2.4,1.1,2.4,2.4c0,1.3-1.1,2.3-2.4,2.3
		s-2.3-1-2.3-2.3C393.2,61.6,394.2,60.5,395.5,60.5z M401.7,48c1.3,0,2.4,1.1,2.4,2.4c0,1.3-1.1,2.3-2.4,2.3s-2.3-1-2.3-2.3
		C399.4,49.1,400.4,48,401.7,48z M401.7,60.5c1.3,0,2.4,1.1,2.4,2.4c0,1.3-1.1,2.3-2.4,2.3s-2.3-1-2.3-2.3
		C399.4,61.6,400.4,60.5,401.7,60.5z M408,48c1.3,0,2.4,1.1,2.4,2.4c0,1.3-1.1,2.3-2.4,2.3c-1.3,0-2.3-1-2.3-2.3
		C405.6,49.1,406.6,48,408,48z M408,60.5c1.3,0,2.4,1.1,2.4,2.4c0,1.3-1.1,2.3-2.4,2.3c-1.3,0-2.3-1-2.3-2.3
		C405.6,61.6,406.6,60.5,408,60.5z M414.2,54.3c1.3,0,2.4,1.1,2.4,2.4c0,1.3-1.1,2.3-2.4,2.3c-1.3,0-2.3-1-2.3-2.3
		C411.9,55.3,412.9,54.3,414.2,54.3z M414.2,60.5c1.3,0,2.4,1.1,2.4,2.4c0,1.3-1.1,2.3-2.4,2.3c-1.3,0-2.3-1-2.3-2.3
		C411.9,61.6,412.9,60.5,414.2,60.5z M414.2,66.7c1.3,0,2.4,1.1,2.4,2.4c0,1.3-1.1,2.3-2.4,2.3c-1.3,0-2.3-1-2.3-2.3
		C411.9,67.8,412.9,66.7,414.2,66.7z M414.2,73c1.3,0,2.4,1.1,2.4,2.4s-1.1,2.3-2.4,2.3c-1.3,0-2.3-1-2.3-2.3S412.9,73,414.2,73z"/>
	<path class="st1" d="M435.4,48c1.3,0,2.4,1.1,2.4,2.4c0,1.3-1.1,2.3-2.4,2.3c-1.3,0-2.3-1-2.3-2.3C433.1,49.1,434.1,48,435.4,48z
		 M435.4,54.3c1.3,0,2.4,1.1,2.4,2.4c0,1.3-1.1,2.3-2.4,2.3c-1.3,0-2.3-1-2.3-2.3C433.1,55.3,434.1,54.3,435.4,54.3z M435.4,60.5
		c1.3,0,2.4,1.1,2.4,2.4c0,1.3-1.1,2.3-2.4,2.3c-1.3,0-2.3-1-2.3-2.3C433.1,61.6,434.1,60.5,435.4,60.5z M435.4,66.7
		c1.3,0,2.4,1.1,2.4,2.4c0,1.3-1.1,2.3-2.4,2.3c-1.3,0-2.3-1-2.3-2.3C433.1,67.8,434.1,66.7,435.4,66.7z M435.4,73
		c1.3,0,2.4,1.1,2.4,2.4s-1.1,2.3-2.4,2.3c-1.3,0-2.3-1-2.3-2.3S434.1,73,435.4,73z M441.6,73c1.3,0,2.4,1.1,2.4,2.4
		s-1.1,2.3-2.4,2.3s-2.3-1-2.3-2.3S440.3,73,441.6,73z M447.8,73c1.3,0,2.4,1.1,2.4,2.4s-1.1,2.3-2.4,2.3s-2.3-1-2.3-2.3
		S446.5,73,447.8,73z M454.1,73c1.3,0,2.4,1.1,2.4,2.4s-1.1,2.3-2.4,2.3c-1.3,0-2.3-1-2.3-2.3S452.7,73,454.1,73z M460.3,73
		c1.3,0,2.4,1.1,2.4,2.4s-1.1,2.3-2.4,2.3c-1.3,0-2.3-1-2.3-2.3S459,73,460.3,73z"/>
	<path class="st1" d="M481.5,48c1.3,0,2.4,1.1,2.4,2.4c0,1.3-1.1,2.3-2.4,2.3c-1.3,0-2.3-1-2.3-2.3C479.2,49.1,480.2,48,481.5,48z
		 M481.5,54.3c1.3,0,2.4,1.1,2.4,2.4c0,1.3-1.1,2.3-2.4,2.3c-1.3,0-2.3-1-2.3-2.3C479.2,55.3,480.2,54.3,481.5,54.3z M481.5,60.5
		c1.3,0,2.4,1.1,2.4,2.4c0,1.3-1.1,2.3-2.4,2.3c-1.3,0-2.3-1-2.3-2.3C479.2,61.6,480.2,60.5,481.5,60.5z M481.5,66.7
		c1.3,0,2.4,1.1,2.4,2.4c0,1.3-1.1,2.3-2.4,2.3c-1.3,0-2.3-1-2.3-2.3C479.2,67.8,480.2,66.7,481.5,66.7z M481.5,73
		c1.3,0,2.4,1.1,2.4,2.4s-1.1,2.3-2.4,2.3c-1.3,0-2.3-1-2.3-2.3S480.2,73,481.5,73z M487.7,73c1.3,0,2.4,1.1,2.4,2.4
		s-1.1,2.3-2.4,2.3s-2.3-1-2.3-2.3S486.4,73,487.7,73z M493.9,73c1.3,0,2.4,1.1,2.4,2.4s-1.1,2.3-2.4,2.3s-2.3-1-2.3-2.3
		S492.6,73,493.9,73z M500.2,73c1.3,0,2.4,1.1,2.4,2.4s-1.1,2.3-2.4,2.3c-1.3,0-2.3-1-2.3-2.3S498.9,73,500.2,73z M506.4,73
		c1.3,0,2.4,1.1,2.4,2.4s-1.1,2.3-2.4,2.3s-2.3-1-2.3-2.3S505.1,73,506.4,73z"/>
	<path class="st1" d="M527.6,54.3c1.3,0,2.4,1.1,2.4,2.4c0,1.3-1.1,2.3-2.4,2.3c-1.3,0-2.3-1-2.3-2.3
		C525.3,55.3,526.3,54.3,527.6,54.3z M527.6,60.5c1.3,0,2.4,1.1,2.4,2.4c0,1.3-1.1,2.3-2.4,2.3c-1.3,0-2.3-1-2.3-2.3
		C525.3,61.6,526.3,60.5,527.6,60.5z M527.6,66.7c1.3,0,2.4,1.1,2.4,2.4c0,1.3-1.1,2.3-2.4,2.3c-1.3,0-2.3-1-2.3-2.3
		C525.3,67.8,526.3,66.7,527.6,66.7z M527.6,73c1.3,0,2.4,1.1,2.4,2.4s-1.1,2.3-2.4,2.3c-1.3,0-2.3-1-2.3-2.3S526.3,73,527.6,73z
		 M533.8,35.6c1.3,0,2.4,1.1,2.4,2.4c0,1.3-1.1,2.3-2.4,2.3s-2.3-1-2.3-2.3C531.5,36.6,532.5,35.6,533.8,35.6z M533.8,48
		c1.3,0,2.4,1.1,2.4,2.4c0,1.3-1.1,2.3-2.4,2.3s-2.3-1-2.3-2.3C531.5,49.1,532.5,48,533.8,48z M533.8,60.5c1.3,0,2.4,1.1,2.4,2.4
		c0,1.3-1.1,2.3-2.4,2.3s-2.3-1-2.3-2.3C531.5,61.6,532.5,60.5,533.8,60.5z M540,35.6c1.3,0,2.4,1.1,2.4,2.4c0,1.3-1.1,2.3-2.4,2.3
		s-2.3-1-2.3-2.3C537.7,36.6,538.7,35.6,540,35.6z M540,48c1.3,0,2.4,1.1,2.4,2.4c0,1.3-1.1,2.3-2.4,2.3s-2.3-1-2.3-2.3
		C537.7,49.1,538.7,48,540,48z M540,60.5c1.3,0,2.4,1.1,2.4,2.4c0,1.3-1.1,2.3-2.4,2.3s-2.3-1-2.3-2.3
		C537.7,61.6,538.7,60.5,540,60.5z M546.3,29.4c1.3,0,2.4,1.1,2.4,2.4c0,1.3-1.1,2.3-2.4,2.3c-1.3,0-2.3-1-2.3-2.3
		C544,30.4,545,29.4,546.3,29.4z M546.3,48c1.3,0,2.4,1.1,2.4,2.4c0,1.3-1.1,2.3-2.4,2.3c-1.3,0-2.3-1-2.3-2.3
		C544,49.1,545,48,546.3,48z M546.3,60.5c1.3,0,2.4,1.1,2.4,2.4c0,1.3-1.1,2.3-2.4,2.3c-1.3,0-2.3-1-2.3-2.3
		C544,61.6,545,60.5,546.3,60.5z M552.5,54.3c1.3,0,2.4,1.1,2.4,2.4c0,1.3-1.1,2.3-2.4,2.3s-2.3-1-2.3-2.3
		C550.2,55.3,551.2,54.3,552.5,54.3z M552.5,60.5c1.3,0,2.4,1.1,2.4,2.4c0,1.3-1.1,2.3-2.4,2.3s-2.3-1-2.3-2.3
		C550.2,61.6,551.2,60.5,552.5,60.5z M552.5,66.7c1.3,0,2.4,1.1,2.4,2.4c0,1.3-1.1,2.3-2.4,2.3s-2.3-1-2.3-2.3
		C550.2,67.8,551.2,66.7,552.5,66.7z M552.5,73c1.3,0,2.4,1.1,2.4,2.4s-1.1,2.3-2.4,2.3s-2.3-1-2.3-2.3S551.2,73,552.5,73z"/>
	<path class="st1" d="M36.9,110c1.3,0,2.4,1.1,2.4,2.4c0,1.3-1.1,2.3-2.4,2.3c-1.3,0-2.3-1-2.3-2.3C34.6,111.1,35.6,110,36.9,110z
		 M36.9,116.3c1.3,0,2.4,1.1,2.4,2.4c0,1.3-1.1,2.3-2.4,2.3c-1.3,0-2.3-1-2.3-2.3C34.6,117.3,35.6,116.3,36.9,116.3z M36.9,122.5
		c1.3,0,2.4,1.1,2.4,2.4s-1.1,2.3-2.4,2.3c-1.3,0-2.3-1-2.3-2.3S35.6,122.5,36.9,122.5z M36.9,128.7c1.3,0,2.4,1.1,2.4,2.4
		c0,1.3-1.1,2.3-2.4,2.3c-1.3,0-2.3-1-2.3-2.3C34.6,129.8,35.6,128.7,36.9,128.7z M36.9,135c1.3,0,2.4,1.1,2.4,2.4
		c0,1.3-1.1,2.3-2.4,2.3c-1.3,0-2.3-1-2.3-2.3C34.6,136,35.6,135,36.9,135z M43.1,110c1.3,0,2.4,1.1,2.4,2.4c0,1.3-1.1,2.3-2.4,2.3
		s-2.3-1-2.3-2.3C40.8,111.1,41.8,110,43.1,110z M43.1,135c1.3,0,2.4,1.1,2.4,2.4c0,1.3-1.1,2.3-2.4,2.3s-2.3-1-2.3-2.3
		C40.8,136,41.8,135,43.1,135z M49.4,110c1.3,0,2.4,1.1,2.4,2.4c0,1.3-1.1,2.3-2.4,2.3s-2.3-1-2.3-2.3C47.1,111.1,48.1,110,49.4,110
		z M49.4,135c1.3,0,2.4,1.1,2.4,2.4c0,1.3-1.1,2.3-2.4,2.3s-2.3-1-2.3-2.3C47.1,136,48.1,135,49.4,135z M55.6,110
		c1.3,0,2.4,1.1,2.4,2.4c0,1.3-1.1,2.3-2.4,2.3c-1.3,0-2.3-1-2.3-2.3C53.3,111.1,54.3,110,55.6,110z M55.6,135
		c1.3,0,2.4,1.1,2.4,2.4c0,1.3-1.1,2.3-2.4,2.3c-1.3,0-2.3-1-2.3-2.3C53.3,136,54.3,135,55.6,135z M61.8,116.3
		c1.3,0,2.4,1.1,2.4,2.4c0,1.3-1.1,2.3-2.4,2.3s-2.3-1-2.3-2.3C59.5,117.3,60.5,116.3,61.8,116.3z M61.8,122.5
		c1.3,0,2.4,1.1,2.4,2.4s-1.1,2.3-2.4,2.3s-2.3-1-2.3-2.3S60.5,122.5,61.8,122.5z M61.8,128.7c1.3,0,2.4,1.1,2.4,2.4
		c0,1.3-1.1,2.3-2.4,2.3s-2.3-1-2.3-2.3C59.5,129.8,60.5,128.7,61.8,128.7z"/>
	<path class="st1" d="M83,110c1.3,0,2.4,1.1,2.4,2.4c0,1.3-1.1,2.3-2.4,2.3c-1.3,0-2.3-1-2.3-2.3C80.7,111.1,81.7,110,83,110z
		 M83,116.3c1.3,0,2.4,1.1,2.4,2.4c0,1.3-1.1,2.3-2.4,2.3c-1.3,0-2.3-1-2.3-2.3C80.7,117.3,81.7,116.3,83,116.3z M83,122.5
		c1.3,0,2.4,1.1,2.4,2.4s-1.1,2.3-2.4,2.3c-1.3,0-2.3-1-2.3-2.3S81.7,122.5,83,122.5z M83,128.7c1.3,0,2.4,1.1,2.4,2.4
		c0,1.3-1.1,2.3-2.4,2.3c-1.3,0-2.3-1-2.3-2.3C80.7,129.8,81.7,128.7,83,128.7z M83,135c1.3,0,2.4,1.1,2.4,2.4
		c0,1.3-1.1,2.3-2.4,2.3c-1.3,0-2.3-1-2.3-2.3C80.7,136,81.7,135,83,135z M89.2,110c1.3,0,2.4,1.1,2.4,2.4c0,1.3-1.1,2.3-2.4,2.3
		s-2.3-1-2.3-2.3C86.9,111.1,87.9,110,89.2,110z M89.2,122.5c1.3,0,2.4,1.1,2.4,2.4s-1.1,2.3-2.4,2.3s-2.3-1-2.3-2.3
		S87.9,122.5,89.2,122.5z M89.2,135c1.3,0,2.4,1.1,2.4,2.4c0,1.3-1.1,2.3-2.4,2.3s-2.3-1-2.3-2.3C86.9,136,87.9,135,89.2,135z
		 M95.5,110c1.3,0,2.4,1.1,2.4,2.4c0,1.3-1.1,2.3-2.4,2.3s-2.3-1-2.3-2.3C93.2,111.1,94.2,110,95.5,110z M95.5,122.5
		c1.3,0,2.4,1.1,2.4,2.4s-1.1,2.3-2.4,2.3s-2.3-1-2.3-2.3S94.2,122.5,95.5,122.5z M95.5,135c1.3,0,2.4,1.1,2.4,2.4
		c0,1.3-1.1,2.3-2.4,2.3s-2.3-1-2.3-2.3C93.2,136,94.2,135,95.5,135z M101.7,110c1.3,0,2.4,1.1,2.4,2.4c0,1.3-1.1,2.3-2.4,2.3
		c-1.3,0-2.3-1-2.3-2.3C99.4,111.1,100.4,110,101.7,110z M101.7,122.5c1.3,0,2.4,1.1,2.4,2.4s-1.1,2.3-2.4,2.3c-1.3,0-2.3-1-2.3-2.3
		S100.4,122.5,101.7,122.5z M101.7,135c1.3,0,2.4,1.1,2.4,2.4c0,1.3-1.1,2.3-2.4,2.3c-1.3,0-2.3-1-2.3-2.3
		C99.4,136,100.4,135,101.7,135z M107.9,110c1.3,0,2.4,1.1,2.4,2.4c0,1.3-1.1,2.3-2.4,2.3s-2.3-1-2.3-2.3
		C105.6,111.1,106.6,110,107.9,110z M107.9,135c1.3,0,2.4,1.1,2.4,2.4c0,1.3-1.1,2.3-2.4,2.3s-2.3-1-2.3-2.3
		C105.6,136,106.6,135,107.9,135z"/>
	<path class="st1" d="M195,110c1.3,0,2.4,1.1,2.4,2.4c0,1.3-1.1,2.3-2.4,2.3c-1.3,0-2.3-1-2.3-2.3C192.7,111.1,193.7,110,195,110z
		 M195,116.3c1.3,0,2.4,1.1,2.4,2.4c0,1.3-1.1,2.3-2.4,2.3c-1.3,0-2.3-1-2.3-2.3C192.7,117.3,193.7,116.3,195,116.3z M195,122.5
		c1.3,0,2.4,1.1,2.4,2.4s-1.1,2.3-2.4,2.3c-1.3,0-2.3-1-2.3-2.3S193.7,122.5,195,122.5z M195,128.7c1.3,0,2.4,1.1,2.4,2.4
		c0,1.3-1.1,2.3-2.4,2.3c-1.3,0-2.3-1-2.3-2.3C192.7,129.8,193.7,128.7,195,128.7z M195,135c1.3,0,2.4,1.1,2.4,2.4
		c0,1.3-1.1,2.3-2.4,2.3c-1.3,0-2.3-1-2.3-2.3C192.7,136,193.7,135,195,135z M201.2,135c1.3,0,2.4,1.1,2.4,2.4
		c0,1.3-1.1,2.3-2.4,2.3s-2.3-1-2.3-2.3C198.9,136,199.9,135,201.2,135z M207.4,135c1.3,0,2.4,1.1,2.4,2.4c0,1.3-1.1,2.3-2.4,2.3
		s-2.3-1-2.3-2.3C205.1,136,206.1,135,207.4,135z M213.7,135c1.3,0,2.4,1.1,2.4,2.4c0,1.3-1.1,2.3-2.4,2.3c-1.3,0-2.3-1-2.3-2.3
		C211.4,136,212.4,135,213.7,135z M219.9,135c1.3,0,2.4,1.1,2.4,2.4c0,1.3-1.1,2.3-2.4,2.3c-1.3,0-2.3-1-2.3-2.3
		C217.6,136,218.6,135,219.9,135z"/>
	<path class="st1" d="M241.1,116.3c1.3,0,2.4,1.1,2.4,2.4c0,1.3-1.1,2.3-2.4,2.3c-1.3,0-2.3-1-2.3-2.3
		C238.8,117.3,239.8,116.3,241.1,116.3z M241.1,122.5c1.3,0,2.4,1.1,2.4,2.4s-1.1,2.3-2.4,2.3c-1.3,0-2.3-1-2.3-2.3
		S239.8,122.5,241.1,122.5z M241.1,128.7c1.3,0,2.4,1.1,2.4,2.4c0,1.3-1.1,2.3-2.4,2.3c-1.3,0-2.3-1-2.3-2.3
		C238.8,129.8,239.8,128.7,241.1,128.7z M241.1,135c1.3,0,2.4,1.1,2.4,2.4c0,1.3-1.1,2.3-2.4,2.3c-1.3,0-2.3-1-2.3-2.3
		C238.8,136,239.8,135,241.1,135z M247.3,110c1.3,0,2.4,1.1,2.4,2.4c0,1.3-1.1,2.3-2.4,2.3s-2.3-1-2.3-2.3
		C245,111.1,246,110,247.3,110z M247.3,122.5c1.3,0,2.4,1.1,2.4,2.4s-1.1,2.3-2.4,2.3s-2.3-1-2.3-2.3S246,122.5,247.3,122.5z
		 M253.5,110c1.3,0,2.4,1.1,2.4,2.4c0,1.3-1.1,2.3-2.4,2.3s-2.3-1-2.3-2.3C251.2,111.1,252.2,110,253.5,110z M253.5,122.5
		c1.3,0,2.4,1.1,2.4,2.4s-1.1,2.3-2.4,2.3s-2.3-1-2.3-2.3S252.2,122.5,253.5,122.5z M259.8,110c1.3,0,2.4,1.1,2.4,2.4
		c0,1.3-1.1,2.3-2.4,2.3c-1.3,0-2.3-1-2.3-2.3C257.5,111.1,258.5,110,259.8,110z M259.8,122.5c1.3,0,2.4,1.1,2.4,2.4
		s-1.1,2.3-2.4,2.3c-1.3,0-2.3-1-2.3-2.3S258.5,122.5,259.8,122.5z M266,116.3c1.3,0,2.4,1.1,2.4,2.4c0,1.3-1.1,2.3-2.4,2.3
		c-1.3,0-2.3-1-2.3-2.3C263.7,117.3,264.7,116.3,266,116.3z M266,122.5c1.3,0,2.4,1.1,2.4,2.4s-1.1,2.3-2.4,2.3
		c-1.3,0-2.3-1-2.3-2.3S264.7,122.5,266,122.5z M266,128.7c1.3,0,2.4,1.1,2.4,2.4c0,1.3-1.1,2.3-2.4,2.3c-1.3,0-2.3-1-2.3-2.3
		C263.7,129.8,264.7,128.7,266,128.7z M266,135c1.3,0,2.4,1.1,2.4,2.4c0,1.3-1.1,2.3-2.4,2.3c-1.3,0-2.3-1-2.3-2.3
		C263.7,136,264.7,135,266,135z"/>
	<path class="st1" d="M287.2,116.3c1.3,0,2.4,1.1,2.4,2.4c0,1.3-1.1,2.3-2.4,2.3c-1.3,0-2.3-1-2.3-2.3
		C284.9,117.3,285.9,116.3,287.2,116.3z M287.2,135c1.3,0,2.4,1.1,2.4,2.4c0,1.3-1.1,2.3-2.4,2.3c-1.3,0-2.3-1-2.3-2.3
		C284.9,136,285.9,135,287.2,135z M293.4,110c1.3,0,2.4,1.1,2.4,2.4c0,1.3-1.1,2.3-2.4,2.3s-2.3-1-2.3-2.3
		C291.1,111.1,292.1,110,293.4,110z M293.4,122.5c1.3,0,2.4,1.1,2.4,2.4s-1.1,2.3-2.4,2.3s-2.3-1-2.3-2.3S292.1,122.5,293.4,122.5z
		 M293.4,135c1.3,0,2.4,1.1,2.4,2.4c0,1.3-1.1,2.3-2.4,2.3s-2.3-1-2.3-2.3C291.1,136,292.1,135,293.4,135z M299.6,110
		c1.3,0,2.4,1.1,2.4,2.4c0,1.3-1.1,2.3-2.4,2.3s-2.3-1-2.3-2.3C297.3,111.1,298.3,110,299.6,110z M299.6,122.5
		c1.3,0,2.4,1.1,2.4,2.4s-1.1,2.3-2.4,2.3s-2.3-1-2.3-2.3S298.3,122.5,299.6,122.5z M299.6,135c1.3,0,2.4,1.1,2.4,2.4
		c0,1.3-1.1,2.3-2.4,2.3s-2.3-1-2.3-2.3C297.3,136,298.3,135,299.6,135z M305.9,110c1.3,0,2.4,1.1,2.4,2.4c0,1.3-1.1,2.3-2.4,2.3
		c-1.3,0-2.3-1-2.3-2.3C303.6,111.1,304.6,110,305.9,110z M305.9,122.5c1.3,0,2.4,1.1,2.4,2.4s-1.1,2.3-2.4,2.3
		c-1.3,0-2.3-1-2.3-2.3S304.6,122.5,305.9,122.5z M305.9,135c1.3,0,2.4,1.1,2.4,2.4c0,1.3-1.1,2.3-2.4,2.3c-1.3,0-2.3-1-2.3-2.3
		C303.6,136,304.6,135,305.9,135z M312.1,110c1.3,0,2.4,1.1,2.4,2.4c0,1.3-1.1,2.3-2.4,2.3s-2.3-1-2.3-2.3
		C309.8,111.1,310.8,110,312.1,110z M312.1,128.7c1.3,0,2.4,1.1,2.4,2.4c0,1.3-1.1,2.3-2.4,2.3s-2.3-1-2.3-2.3
		C309.8,129.8,310.8,128.7,312.1,128.7z"/>
	<path class="st1" d="M399.1,116.3c1.3,0,2.4,1.1,2.4,2.4c0,1.3-1.1,2.3-2.4,2.3c-1.3,0-2.3-1-2.3-2.3
		C396.8,117.3,397.8,116.3,399.1,116.3z M399.1,135c1.3,0,2.4,1.1,2.4,2.4c0,1.3-1.1,2.3-2.4,2.3c-1.3,0-2.3-1-2.3-2.3
		C396.8,136,397.8,135,399.1,135z M405.4,110c1.3,0,2.4,1.1,2.4,2.4c0,1.3-1.1,2.3-2.4,2.3s-2.3-1-2.3-2.3
		C403.1,111.1,404.1,110,405.4,110z M405.4,122.5c1.3,0,2.4,1.1,2.4,2.4s-1.1,2.3-2.4,2.3s-2.3-1-2.3-2.3S404.1,122.5,405.4,122.5z
		 M405.4,135c1.3,0,2.4,1.1,2.4,2.4c0,1.3-1.1,2.3-2.4,2.3s-2.3-1-2.3-2.3C403.1,136,404.1,135,405.4,135z M411.6,110
		c1.3,0,2.4,1.1,2.4,2.4c0,1.3-1.1,2.3-2.4,2.3s-2.3-1-2.3-2.3C409.3,111.1,410.3,110,411.6,110z M411.6,122.5
		c1.3,0,2.4,1.1,2.4,2.4s-1.1,2.3-2.4,2.3s-2.3-1-2.3-2.3S410.3,122.5,411.6,122.5z M411.6,135c1.3,0,2.4,1.1,2.4,2.4
		c0,1.3-1.1,2.3-2.4,2.3s-2.3-1-2.3-2.3C409.3,136,410.3,135,411.6,135z M417.8,110c1.3,0,2.4,1.1,2.4,2.4c0,1.3-1.1,2.3-2.4,2.3
		c-1.3,0-2.3-1-2.3-2.3C415.5,111.1,416.5,110,417.8,110z M417.8,122.5c1.3,0,2.4,1.1,2.4,2.4s-1.1,2.3-2.4,2.3
		c-1.3,0-2.3-1-2.3-2.3S416.5,122.5,417.8,122.5z M417.8,135c1.3,0,2.4,1.1,2.4,2.4c0,1.3-1.1,2.3-2.4,2.3c-1.3,0-2.3-1-2.3-2.3
		C415.5,136,416.5,135,417.8,135z M424.1,110c1.3,0,2.4,1.1,2.4,2.4c0,1.3-1.1,2.3-2.4,2.3s-2.3-1-2.3-2.3
		C421.8,111.1,422.8,110,424.1,110z M424.1,128.7c1.3,0,2.4,1.1,2.4,2.4c0,1.3-1.1,2.3-2.4,2.3s-2.3-1-2.3-2.3
		C421.8,129.8,422.8,128.7,424.1,128.7z"/>
	<path class="st1" d="M445.2,116.3c1.3,0,2.4,1.1,2.4,2.4c0,1.3-1.1,2.3-2.4,2.3c-1.3,0-2.3-1-2.3-2.3
		C442.9,117.3,443.9,116.3,445.2,116.3z M445.2,122.5c1.3,0,2.4,1.1,2.4,2.4s-1.1,2.3-2.4,2.3c-1.3,0-2.3-1-2.3-2.3
		S443.9,122.5,445.2,122.5z M445.2,128.7c1.3,0,2.4,1.1,2.4,2.4c0,1.3-1.1,2.3-2.4,2.3c-1.3,0-2.3-1-2.3-2.3
		C442.9,129.8,443.9,128.7,445.2,128.7z M451.5,110c1.3,0,2.4,1.1,2.4,2.4c0,1.3-1.1,2.3-2.4,2.3s-2.3-1-2.3-2.3
		C449.2,111.1,450.2,110,451.5,110z M451.5,135c1.3,0,2.4,1.1,2.4,2.4c0,1.3-1.1,2.3-2.4,2.3s-2.3-1-2.3-2.3
		C449.2,136,450.2,135,451.5,135z M457.7,110c1.3,0,2.4,1.1,2.4,2.4c0,1.3-1.1,2.3-2.4,2.3s-2.3-1-2.3-2.3
		C455.4,111.1,456.4,110,457.7,110z M457.7,135c1.3,0,2.4,1.1,2.4,2.4c0,1.3-1.1,2.3-2.4,2.3s-2.3-1-2.3-2.3
		C455.4,136,456.4,135,457.7,135z M463.9,110c1.3,0,2.4,1.1,2.4,2.4c0,1.3-1.1,2.3-2.4,2.3c-1.3,0-2.3-1-2.3-2.3
		C461.6,111.1,462.6,110,463.9,110z M463.9,135c1.3,0,2.4,1.1,2.4,2.4c0,1.3-1.1,2.3-2.4,2.3c-1.3,0-2.3-1-2.3-2.3
		C461.6,136,462.6,135,463.9,135z M470.2,116.3c1.3,0,2.4,1.1,2.4,2.4c0,1.3-1.1,2.3-2.4,2.3s-2.3-1-2.3-2.3
		C467.9,117.3,468.9,116.3,470.2,116.3z M470.2,122.5c1.3,0,2.4,1.1,2.4,2.4s-1.1,2.3-2.4,2.3s-2.3-1-2.3-2.3
		S468.9,122.5,470.2,122.5z M470.2,128.7c1.3,0,2.4,1.1,2.4,2.4c0,1.3-1.1,2.3-2.4,2.3s-2.3-1-2.3-2.3
		C467.9,129.8,468.9,128.7,470.2,128.7z"/>
	<path class="st1" d="M491.3,110c1.3,0,2.4,1.1,2.4,2.4c0,1.3-1.1,2.3-2.4,2.3c-1.3,0-2.3-1-2.3-2.3C489,111.1,490,110,491.3,110z
		 M491.3,116.3c1.3,0,2.4,1.1,2.4,2.4c0,1.3-1.1,2.3-2.4,2.3c-1.3,0-2.3-1-2.3-2.3C489,117.3,490,116.3,491.3,116.3z M491.3,122.5
		c1.3,0,2.4,1.1,2.4,2.4s-1.1,2.3-2.4,2.3c-1.3,0-2.3-1-2.3-2.3S490,122.5,491.3,122.5z M491.3,128.7c1.3,0,2.4,1.1,2.4,2.4
		c0,1.3-1.1,2.3-2.4,2.3c-1.3,0-2.3-1-2.3-2.3C489,129.8,490,128.7,491.3,128.7z M491.3,135c1.3,0,2.4,1.1,2.4,2.4
		c0,1.3-1.1,2.3-2.4,2.3c-1.3,0-2.3-1-2.3-2.3C489,136,490,135,491.3,135z M497.6,116.3c1.3,0,2.4,1.1,2.4,2.4
		c0,1.3-1.1,2.3-2.4,2.3s-2.3-1-2.3-2.3C495.3,117.3,496.3,116.3,497.6,116.3z M503.8,122.5c1.3,0,2.4,1.1,2.4,2.4s-1.1,2.3-2.4,2.3
		s-2.3-1-2.3-2.3S502.5,122.5,503.8,122.5z M503.8,128.7c1.3,0,2.4,1.1,2.4,2.4c0,1.3-1.1,2.3-2.4,2.3s-2.3-1-2.3-2.3
		C501.5,129.8,502.5,128.7,503.8,128.7z M510,116.3c1.3,0,2.4,1.1,2.4,2.4c0,1.3-1.1,2.3-2.4,2.3c-1.3,0-2.3-1-2.3-2.3
		C507.7,117.3,508.7,116.3,510,116.3z M516.3,110c1.3,0,2.4,1.1,2.4,2.4c0,1.3-1.1,2.3-2.4,2.3c-1.3,0-2.3-1-2.3-2.3
		C514,111.1,515,110,516.3,110z M516.3,116.3c1.3,0,2.4,1.1,2.4,2.4c0,1.3-1.1,2.3-2.4,2.3c-1.3,0-2.3-1-2.3-2.3
		C514,117.3,515,116.3,516.3,116.3z M516.3,122.5c1.3,0,2.4,1.1,2.4,2.4s-1.1,2.3-2.4,2.3c-1.3,0-2.3-1-2.3-2.3
		S515,122.5,516.3,122.5z M516.3,128.7c1.3,0,2.4,1.1,2.4,2.4c0,1.3-1.1,2.3-2.4,2.3c-1.3,0-2.3-1-2.3-2.3
		C514,129.8,515,128.7,516.3,128.7z M516.3,135c1.3,0,2.4,1.1,2.4,2.4c0,1.3-1.1,2.3-2.4,2.3c-1.3,0-2.3-1-2.3-2.3
		C514,136,515,135,516.3,135z"/>
	<path class="st1" d="M537.4,110c1.3,0,2.4,1.1,2.4,2.4c0,1.3-1.1,2.3-2.4,2.3c-1.3,0-2.3-1-2.3-2.3
		C535.1,111.1,536.1,110,537.4,110z M537.4,116.3c1.3,0,2.4,1.1,2.4,2.4c0,1.3-1.1,2.3-2.4,2.3c-1.3,0-2.3-1-2.3-2.3
		C535.1,117.3,536.1,116.3,537.4,116.3z M537.4,122.5c1.3,0,2.4,1.1,2.4,2.4s-1.1,2.3-2.4,2.3c-1.3,0-2.3-1-2.3-2.3
		S536.1,122.5,537.4,122.5z M537.4,128.7c1.3,0,2.4,1.1,2.4,2.4c0,1.3-1.1,2.3-2.4,2.3c-1.3,0-2.3-1-2.3-2.3
		C535.1,129.8,536.1,128.7,537.4,128.7z M537.4,135c1.3,0,2.4,1.1,2.4,2.4c0,1.3-1.1,2.3-2.4,2.3c-1.3,0-2.3-1-2.3-2.3
		C535.1,136,536.1,135,537.4,135z M543.7,110c1.3,0,2.4,1.1,2.4,2.4c0,1.3-1.1,2.3-2.4,2.3s-2.3-1-2.3-2.3
		C541.4,111.1,542.4,110,543.7,110z M543.7,122.5c1.3,0,2.4,1.1,2.4,2.4s-1.1,2.3-2.4,2.3s-2.3-1-2.3-2.3S542.4,122.5,543.7,122.5z
		 M543.7,135c1.3,0,2.4,1.1,2.4,2.4c0,1.3-1.1,2.3-2.4,2.3s-2.3-1-2.3-2.3C541.4,136,542.4,135,543.7,135z M549.9,110
		c1.3,0,2.4,1.1,2.4,2.4c0,1.3-1.1,2.3-2.4,2.3s-2.3-1-2.3-2.3C547.6,111.1,548.6,110,549.9,110z M549.9,122.5
		c1.3,0,2.4,1.1,2.4,2.4s-1.1,2.3-2.4,2.3s-2.3-1-2.3-2.3S548.6,122.5,549.9,122.5z M549.9,135c1.3,0,2.4,1.1,2.4,2.4
		c0,1.3-1.1,2.3-2.4,2.3s-2.3-1-2.3-2.3C547.6,136,548.6,135,549.9,135z M556.1,110c1.3,0,2.4,1.1,2.4,2.4c0,1.3-1.1,2.3-2.4,2.3
		c-1.3,0-2.3-1-2.3-2.3C553.8,111.1,554.8,110,556.1,110z M556.1,122.5c1.3,0,2.4,1.1,2.4,2.4s-1.1,2.3-2.4,2.3
		c-1.3,0-2.3-1-2.3-2.3S554.8,122.5,556.1,122.5z M556.1,135c1.3,0,2.4,1.1,2.4,2.4c0,1.3-1.1,2.3-2.4,2.3c-1.3,0-2.3-1-2.3-2.3
		C553.8,136,554.8,135,556.1,135z M562.4,116.3c1.3,0,2.4,1.1,2.4,2.4c0,1.3-1.1,2.3-2.4,2.3c-1.3,0-2.3-1-2.3-2.3
		C560.1,117.3,561.1,116.3,562.4,116.3z M562.4,128.7c1.3,0,2.4,1.1,2.4,2.4c0,1.3-1.1,2.3-2.4,2.3c-1.3,0-2.3-1-2.3-2.3
		C560.1,129.8,561.1,128.7,562.4,128.7z"/>
	<path class="st1" d="M583.6,110c1.3,0,2.4,1.1,2.4,2.4c0,1.3-1.1,2.3-2.4,2.3c-1.3,0-2.3-1-2.3-2.3
		C581.2,111.1,582.2,110,583.6,110z M583.6,116.3c1.3,0,2.4,1.1,2.4,2.4c0,1.3-1.1,2.3-2.4,2.3c-1.3,0-2.3-1-2.3-2.3
		C581.2,117.3,582.2,116.3,583.6,116.3z M583.6,122.5c1.3,0,2.4,1.1,2.4,2.4s-1.1,2.3-2.4,2.3c-1.3,0-2.3-1-2.3-2.3
		S582.2,122.5,583.6,122.5z M583.6,128.7c1.3,0,2.4,1.1,2.4,2.4c0,1.3-1.1,2.3-2.4,2.3c-1.3,0-2.3-1-2.3-2.3
		C581.2,129.8,582.2,128.7,583.6,128.7z M583.6,135c1.3,0,2.4,1.1,2.4,2.4c0,1.3-1.1,2.3-2.4,2.3c-1.3,0-2.3-1-2.3-2.3
		C581.2,136,582.2,135,583.6,135z M589.8,110c1.3,0,2.4,1.1,2.4,2.4c0,1.3-1.1,2.3-2.4,2.3s-2.3-1-2.3-2.3
		C587.5,111.1,588.5,110,589.8,110z M589.8,122.5c1.3,0,2.4,1.1,2.4,2.4s-1.1,2.3-2.4,2.3s-2.3-1-2.3-2.3S588.5,122.5,589.8,122.5z
		 M596,110c1.3,0,2.4,1.1,2.4,2.4c0,1.3-1.1,2.3-2.4,2.3s-2.3-1-2.3-2.3C593.7,111.1,594.7,110,596,110z M596,122.5
		c1.3,0,2.4,1.1,2.4,2.4s-1.1,2.3-2.4,2.3s-2.3-1-2.3-2.3S594.7,122.5,596,122.5z M602.2,110c1.3,0,2.4,1.1,2.4,2.4
		c0,1.3-1.1,2.3-2.4,2.3c-1.3,0-2.3-1-2.3-2.3C599.9,111.1,600.9,110,602.2,110z M602.2,122.5c1.3,0,2.4,1.1,2.4,2.4
		s-1.1,2.3-2.4,2.3c-1.3,0-2.3-1-2.3-2.3S600.9,122.5,602.2,122.5z M602.2,128.7c1.3,0,2.4,1.1,2.4,2.4c0,1.3-1.1,2.3-2.4,2.3
		c-1.3,0-2.3-1-2.3-2.3C599.9,129.8,600.9,128.7,602.2,128.7z M608.5,116.3c1.3,0,2.4,1.1,2.4,2.4c0,1.3-1.1,2.3-2.4,2.3
		c-1.3,0-2.3-1-2.3-2.3C606.2,117.3,607.2,116.3,608.5,116.3z M608.5,135c1.3,0,2.4,1.1,2.4,2.4c0,1.3-1.1,2.3-2.4,2.3
		c-1.3,0-2.3-1-2.3-2.3C606.2,136,607.2,135,608.5,135z"/>
	<path class="st1" d="M629.7,116.3c1.3,0,2.4,1.1,2.4,2.4c0,1.3-1.1,2.3-2.4,2.3c-1.3,0-2.3-1-2.3-2.3
		C627.3,117.3,628.3,116.3,629.7,116.3z M629.7,122.5c1.3,0,2.4,1.1,2.4,2.4s-1.1,2.3-2.4,2.3c-1.3,0-2.3-1-2.3-2.3
		S628.3,122.5,629.7,122.5z M629.7,128.7c1.3,0,2.4,1.1,2.4,2.4c0,1.3-1.1,2.3-2.4,2.3c-1.3,0-2.3-1-2.3-2.3
		C627.3,129.8,628.3,128.7,629.7,128.7z M629.7,135c1.3,0,2.4,1.1,2.4,2.4c0,1.3-1.1,2.3-2.4,2.3c-1.3,0-2.3-1-2.3-2.3
		C627.3,136,628.3,135,629.7,135z M635.9,110c1.3,0,2.4,1.1,2.4,2.4c0,1.3-1.1,2.3-2.4,2.3s-2.3-1-2.3-2.3
		C633.6,111.1,634.6,110,635.9,110z M635.9,122.5c1.3,0,2.4,1.1,2.4,2.4s-1.1,2.3-2.4,2.3s-2.3-1-2.3-2.3S634.6,122.5,635.9,122.5z
		 M642.1,110c1.3,0,2.4,1.1,2.4,2.4c0,1.3-1.1,2.3-2.4,2.3s-2.3-1-2.3-2.3C639.8,111.1,640.8,110,642.1,110z M642.1,122.5
		c1.3,0,2.4,1.1,2.4,2.4s-1.1,2.3-2.4,2.3s-2.3-1-2.3-2.3S640.8,122.5,642.1,122.5z M648.3,110c1.3,0,2.4,1.1,2.4,2.4
		c0,1.3-1.1,2.3-2.4,2.3c-1.3,0-2.3-1-2.3-2.3C646,111.1,647,110,648.3,110z M648.3,122.5c1.3,0,2.4,1.1,2.4,2.4s-1.1,2.3-2.4,2.3
		c-1.3,0-2.3-1-2.3-2.3S647,122.5,648.3,122.5z M654.6,116.3c1.3,0,2.4,1.1,2.4,2.4c0,1.3-1.1,2.3-2.4,2.3s-2.3-1-2.3-2.3
		C652.3,117.3,653.3,116.3,654.6,116.3z M654.6,122.5c1.3,0,2.4,1.1,2.4,2.4s-1.1,2.3-2.4,2.3s-2.3-1-2.3-2.3
		S653.3,122.5,654.6,122.5z M654.6,128.7c1.3,0,2.4,1.1,2.4,2.4c0,1.3-1.1,2.3-2.4,2.3s-2.3-1-2.3-2.3
		C652.3,129.8,653.3,128.7,654.6,128.7z M654.6,135c1.3,0,2.4,1.1,2.4,2.4c0,1.3-1.1,2.3-2.4,2.3s-2.3-1-2.3-2.3
		C652.3,136,653.3,135,654.6,135z"/>
	<path class="st1" d="M675.8,116.3c1.3,0,2.4,1.1,2.4,2.4c0,1.3-1.1,2.3-2.4,2.3c-1.3,0-2.3-1-2.3-2.3
		C673.5,117.3,674.4,116.3,675.8,116.3z M675.8,135c1.3,0,2.4,1.1,2.4,2.4c0,1.3-1.1,2.3-2.4,2.3c-1.3,0-2.3-1-2.3-2.3
		C673.5,136,674.4,135,675.8,135z M682,110c1.3,0,2.4,1.1,2.4,2.4c0,1.3-1.1,2.3-2.4,2.3s-2.3-1-2.3-2.3
		C679.7,111.1,680.7,110,682,110z M682,122.5c1.3,0,2.4,1.1,2.4,2.4s-1.1,2.3-2.4,2.3s-2.3-1-2.3-2.3S680.7,122.5,682,122.5z
		 M682,135c1.3,0,2.4,1.1,2.4,2.4c0,1.3-1.1,2.3-2.4,2.3s-2.3-1-2.3-2.3C679.7,136,680.7,135,682,135z M688.2,110
		c1.3,0,2.4,1.1,2.4,2.4c0,1.3-1.1,2.3-2.4,2.3s-2.3-1-2.3-2.3C685.9,111.1,686.9,110,688.2,110z M688.2,122.5
		c1.3,0,2.4,1.1,2.4,2.4s-1.1,2.3-2.4,2.3s-2.3-1-2.3-2.3S686.9,122.5,688.2,122.5z M688.2,135c1.3,0,2.4,1.1,2.4,2.4
		c0,1.3-1.1,2.3-2.4,2.3s-2.3-1-2.3-2.3C685.9,136,686.9,135,688.2,135z M694.4,110c1.3,0,2.4,1.1,2.4,2.4c0,1.3-1.1,2.3-2.4,2.3
		c-1.3,0-2.3-1-2.3-2.3C692.1,111.1,693.1,110,694.4,110z M694.4,122.5c1.3,0,2.4,1.1,2.4,2.4s-1.1,2.3-2.4,2.3
		c-1.3,0-2.3-1-2.3-2.3S693.1,122.5,694.4,122.5z M694.4,135c1.3,0,2.4,1.1,2.4,2.4c0,1.3-1.1,2.3-2.4,2.3c-1.3,0-2.3-1-2.3-2.3
		C692.1,136,693.1,135,694.4,135z M700.7,110c1.3,0,2.4,1.1,2.4,2.4c0,1.3-1.1,2.3-2.4,2.3s-2.3-1-2.3-2.3
		C698.4,111.1,699.4,110,700.7,110z M700.7,128.7c1.3,0,2.4,1.1,2.4,2.4c0,1.3-1.1,2.3-2.4,2.3s-2.3-1-2.3-2.3
		C698.4,129.8,699.4,128.7,700.7,128.7z"/>
</g>
</svg>
